<svg width="138" height="47" viewBox="0 0 138 47" fill="none" xmlns="http://www.w3.org/2000/svg">
<g filter="url(#filter0_i_19_22)">
<path d="M29.2737 31.3617C23.805 31.3617 21.0706 28.6117 21.0706 23.1117C21.0706 20.6351 21.8284 18.6468 23.3441 17.1468C24.8675 15.6468 26.8636 14.8968 29.3323 14.8968C30.8089 14.8968 32.2816 15.2718 33.7503 16.0218C35.2191 16.7718 36.137 17.9163 36.5042 19.4554C36.5589 19.6742 36.5862 19.846 36.5862 19.971C36.5862 20.3226 36.2698 20.4984 35.637 20.4984C35.0355 20.4984 34.7151 20.3343 34.6761 20.0062C34.4964 18.7249 33.8675 17.7327 32.7894 17.0296C31.7191 16.3187 30.5784 15.9632 29.3675 15.9632C27.3206 15.9632 25.7425 16.682 24.6331 18.1195C23.5237 19.557 22.9691 21.2367 22.9691 23.1585C22.9691 25.0882 23.4964 26.764 24.5511 28.1859C25.6136 29.5999 27.18 30.3031 29.2503 30.2952C30.5394 30.2952 31.7151 29.9163 32.7776 29.1585C34.0667 28.2445 34.7112 27.2796 34.7112 26.264V24.1312H29.2503C28.6097 24.1312 28.2894 23.9515 28.2894 23.5921C28.2894 23.2327 28.6097 23.0531 29.2503 23.0531H35.6605C36.2933 23.0531 36.6097 23.2327 36.6097 23.5921V26.264C36.6097 26.889 36.3401 27.5531 35.8011 28.2562C35.262 28.9593 34.7503 29.4827 34.2659 29.8265C32.8128 30.8499 31.1487 31.3617 29.2737 31.3617ZM38.3792 15.4242C38.3792 15.0726 38.6995 14.8968 39.3401 14.8968C39.973 14.8968 40.2894 15.0726 40.2894 15.4242V30.8343C40.2894 31.1859 39.973 31.3617 39.3401 31.3617C38.6995 31.3617 38.3792 31.1859 38.3792 30.8343V15.4242ZM47.9183 19.3617C49.723 19.3617 51.1995 19.9163 52.348 21.0257C53.4964 22.1351 54.0706 23.5804 54.0706 25.3617C54.0706 27.1429 53.4964 28.5882 52.348 29.6976C51.1995 30.807 49.723 31.3617 47.9183 31.3617C46.1136 31.3617 44.637 30.807 43.4886 29.6976C42.3401 28.5882 41.7659 27.1429 41.7659 25.3617C41.7659 23.5804 42.3401 22.1351 43.4886 21.0257C44.637 19.9163 46.1136 19.3617 47.9183 19.3617ZM47.9183 20.4281C46.5511 20.4281 45.5003 20.9398 44.7659 21.9632C44.0394 22.9867 43.6761 24.1195 43.6761 25.3617C43.6761 26.6038 44.0394 27.7367 44.7659 28.7601C45.5003 29.7835 46.5511 30.2952 47.9183 30.2952C49.2855 30.2952 50.3323 29.7835 51.0589 28.7601C51.7933 27.7367 52.1605 26.6038 52.1605 25.3617C52.1605 24.1195 51.7933 22.9867 51.0589 21.9632C50.3323 20.9398 49.2855 20.4281 47.9183 20.4281ZM61.5941 19.3499C63.3831 19.3499 64.7894 19.9242 65.8128 21.0726C66.8441 22.221 67.3597 23.6468 67.3597 25.3499C67.3597 27.0452 66.8441 28.471 65.8128 29.6273C64.7894 30.7757 63.3831 31.3499 61.5941 31.3499C59.8441 31.3499 58.5589 30.764 57.7386 29.5921V30.8343C57.7386 31.1859 57.4222 31.3617 56.7894 31.3617C56.1487 31.3617 55.8284 31.1859 55.8284 30.8343V15.4242C55.8284 15.0726 56.1487 14.8968 56.7894 14.8968C57.4222 14.8968 57.7386 15.0726 57.7386 15.4242V21.1077C58.5589 19.9359 59.8441 19.3499 61.5941 19.3499ZM61.5941 20.4163C60.2972 20.4163 59.3284 20.9554 58.6878 22.0335C58.055 23.1038 57.7386 24.2093 57.7386 25.3499C57.7386 26.4827 58.055 27.5882 58.6878 28.6663C59.3284 29.7445 60.2972 30.2835 61.5941 30.2835C62.8987 30.2835 63.8675 29.7445 64.5003 28.6663C65.1331 27.5882 65.4495 26.4827 65.4495 25.3499C65.4495 24.2093 65.1331 23.1038 64.5003 22.0335C63.8675 20.9554 62.8987 20.4163 61.5941 20.4163ZM79.6644 31.3617C78.7503 31.3617 78.1448 30.8031 77.848 29.6859C76.8636 30.8031 75.4105 31.3617 73.4886 31.3617C72.3089 31.3617 71.2972 31.1234 70.4534 30.6468C69.3675 30.0452 68.8245 29.1663 68.8245 28.0101C68.8245 27.1742 69.0589 26.5023 69.5276 25.9945C70.0042 25.4788 70.6292 25.1507 71.4026 25.0101C72.1839 24.8617 72.9534 24.7874 73.7112 24.7874C73.9612 24.7874 74.2425 24.7952 74.555 24.8109C74.8753 24.8265 75.1995 24.8343 75.5276 24.8343C76.5042 24.8343 77.1995 24.7054 77.6136 24.4476V23.264C77.6136 21.3734 76.5198 20.4281 74.3323 20.4281C73.512 20.4281 72.7855 20.6351 72.1526 21.0492C71.4339 21.5179 71.0745 22.0804 71.0745 22.7367C71.0745 23.096 70.7581 23.2757 70.1253 23.2757C69.4925 23.2757 69.1761 23.096 69.1761 22.7367C69.1917 21.8226 69.6995 21.0296 70.6995 20.3577C71.6917 19.6937 72.9026 19.3617 74.3323 19.3617C75.5433 19.3617 76.7112 19.6585 77.8362 20.2523C78.9612 20.846 79.5237 21.8499 79.5237 23.264V28.4085C79.5237 28.9867 79.598 29.4437 79.7464 29.7796C79.887 30.0765 80.0901 30.3031 80.3558 30.4593C80.5276 30.5609 80.6136 30.682 80.6136 30.8226C80.6136 31.182 80.2972 31.3617 79.6644 31.3617ZM73.4886 30.2952C74.4105 30.2952 75.3284 30.0179 76.2425 29.4632C77.1566 28.9085 77.6136 28.1117 77.6136 27.0726V25.7367C77.1058 25.846 76.4925 25.9007 75.7737 25.9007C75.4144 25.9007 75.055 25.8929 74.6956 25.8773C74.3362 25.8538 73.9769 25.8421 73.6175 25.8421C73.1487 25.8343 72.6605 25.8812 72.1526 25.9827C71.6448 26.0765 71.262 26.3538 71.0042 26.8148C70.8089 27.1585 70.7112 27.5452 70.7112 27.9749C70.7269 28.7327 71.0042 29.3148 71.5433 29.721C72.0276 30.1038 72.6761 30.2952 73.4886 30.2952ZM81.7855 15.4242C81.7855 15.0726 82.1058 14.8968 82.7464 14.8968C83.3792 14.8968 83.6956 15.0726 83.6956 15.4242V30.8343C83.6956 31.1859 83.3792 31.3617 82.7464 31.3617C82.1058 31.3617 81.7855 31.1859 81.7855 30.8343V15.4242ZM85.7581 15.4242C85.7581 15.0726 86.0784 14.8968 86.7191 14.8968C87.3519 14.8968 87.6683 15.0726 87.6683 15.4242V30.014H95.7425C96.3831 30.014 96.7034 30.1937 96.7034 30.5531C96.7034 30.9046 96.3831 31.0804 95.7425 31.0804H86.7191C86.0784 31.0804 85.7581 30.9046 85.7581 30.5531V15.4242ZM98.9417 15.9281C99.6448 15.9281 99.9964 16.2796 99.9964 16.9827C99.9964 17.6859 99.6448 18.0374 98.9417 18.0374C98.2386 18.0374 97.887 17.6859 97.887 16.9827C97.887 16.2796 98.2386 15.9281 98.9417 15.9281ZM97.9808 19.889C97.9808 19.5374 98.3011 19.3617 98.9417 19.3617C99.5823 19.3617 99.9026 19.5374 99.9026 19.889V30.8226C99.9026 31.182 99.5823 31.3617 98.9417 31.3617C98.3011 31.3617 97.9808 31.182 97.9808 30.8226V19.889ZM111.867 31.3734C111.235 31.3734 110.918 31.1937 110.918 30.8343V24.6234C110.918 23.5999 110.641 22.6507 110.086 21.7757C109.539 20.8929 108.692 20.4515 107.543 20.4515C105.153 20.4515 103.957 21.9554 103.957 24.9632V30.8343C103.957 31.1937 103.641 31.3734 103.008 31.3734C102.367 31.3734 102.047 31.1937 102.047 30.8343V19.9007C102.047 19.5413 102.367 19.3617 103.008 19.3617C103.641 19.3617 103.957 19.5413 103.957 19.9007V21.2249C104.653 19.9749 105.903 19.3499 107.707 19.3499C108.957 19.3421 110.121 19.7835 111.2 20.6742C112.285 21.557 112.828 22.8734 112.828 24.6234V30.8343C112.828 31.1937 112.508 31.3734 111.867 31.3734ZM125.063 31.3617C124.547 31.3617 124.188 31.2484 123.985 31.0218L118.922 25.5374L117.071 27.1195V30.8226C117.071 31.182 116.754 31.3617 116.121 31.3617C115.481 31.3617 115.16 31.182 115.16 30.8226V15.4242C115.16 15.0726 115.481 14.8968 116.121 14.8968C116.754 14.8968 117.071 15.0726 117.071 15.4242V25.4906L123.996 19.5726C124.145 19.432 124.375 19.3617 124.688 19.3617C124.836 19.3617 124.977 19.3812 125.11 19.4202C125.391 19.4906 125.532 19.6117 125.532 19.7835C125.532 19.846 125.492 19.9124 125.414 19.9827L120.364 24.307L126.117 30.5296C126.196 30.6234 126.235 30.7054 126.235 30.7757C126.235 30.9632 126.094 31.1117 125.813 31.221C125.586 31.3148 125.336 31.3617 125.063 31.3617Z" fill="black"/>
</g>
<mask id="mask0_19_22" style="mask-type:alpha" maskUnits="userSpaceOnUse" x="0" y="0" width="33" height="40">
<path d="M27 0.0807343C26.1667 -1.2526 36.7 14.3807 31.5 13.5807C25.0002 12.5808 22 15.5808 20 19.5807C17.5819 24.4183 23.5001 35.5808 25.5 39.0807L1.5 31.5807L0 16.0807L27 0.0807343Z" fill="#D9D9D9"/>
</mask>
<g mask="url(#mask0_19_22)">
<path d="M30.3968 19.6775C33.2015 16.7943 33.2015 12.125 30.3968 9.2418C27.9148 6.69029 24.0032 6.35859 21.1489 8.45593L21.0694 8.51207C20.3546 9.03768 20.1908 10.0583 20.7021 10.788C21.2134 11.5177 22.2062 11.6912 22.916 11.1656L22.9955 11.1095C24.5889 9.94091 26.7681 10.1246 28.1481 11.5484C29.7118 13.1558 29.7118 15.7583 28.1481 17.3658L22.5785 23.1016C21.0148 24.709 18.4832 24.709 16.9195 23.1016C15.5346 21.6778 15.3559 19.4376 16.4926 17.8047L16.5472 17.723C17.0585 16.9882 16.8897 15.9676 16.1799 15.4471C15.47 14.9266 14.4723 15.095 13.9659 15.8247L13.9113 15.9063C11.8662 18.8355 12.1888 22.8566 14.6708 25.4081C17.4755 28.2913 22.0176 28.2913 24.8222 25.4081L30.3968 19.6775ZM4.6038 18.4834C1.79914 21.3666 1.79914 26.0358 4.6038 28.919C7.08581 31.4705 10.9975 31.8022 13.8518 29.7049L13.9312 29.6487C14.646 29.1231 14.8098 28.1025 14.2985 27.3728C13.7872 26.6431 12.7944 26.4696 12.0846 26.9952L12.0051 27.0513C10.4117 28.2199 8.2325 28.0362 6.8525 26.6125C5.28884 24.9999 5.28884 22.3974 6.8525 20.7899L12.4221 15.0592C13.9858 13.4518 16.5174 13.4518 18.0811 15.0592C19.4661 16.483 19.6448 18.7232 18.508 20.3613L18.4534 20.4429C17.9421 21.1777 18.1109 22.1983 18.8207 22.7189C19.5306 23.2394 20.5284 23.071 21.0347 22.3412L21.0893 22.2596C23.1345 19.3254 22.8118 15.3042 20.3298 12.7527C17.5251 9.86947 12.9831 9.86947 10.1784 12.7527L4.6038 18.4834Z" fill="black"/>
</g>
<defs>
<filter id="filter0_i_19_22" x="21.0706" y="14.8968" width="105.164" height="20.4766" filterUnits="userSpaceOnUse" color-interpolation-filters="sRGB">
<feFlood flood-opacity="0" result="BackgroundImageFix"/>
<feBlend mode="normal" in="SourceGraphic" in2="BackgroundImageFix" result="shape"/>
<feColorMatrix in="SourceAlpha" type="matrix" values="0 0 0 0 0 0 0 0 0 0 0 0 0 0 0 0 0 0 127 0" result="hardAlpha"/>
<feOffset dy="4"/>
<feGaussianBlur stdDeviation="2"/>
<feComposite in2="hardAlpha" operator="arithmetic" k2="-1" k3="1"/>
<feColorMatrix type="matrix" values="0 0 0 0 0 0 0 0 0 0 0 0 0 0 0 0 0 0 0.25 0"/>
<feBlend mode="normal" in2="shape" result="effect1_innerShadow_19_22"/>
</filter>
</defs>
</svg>
